{
  "source": "C:\\Users\\Peter\\Desktop\\stuff\\MIUN\\quantitative_research\\video_compression\\videos\\UVG\\Beauty_1920x1080_120fps_420_8bit_YUV.y4m",
  "output": "C:\\Users\\Peter\\Desktop\\stuff\\MIUN\\quantitative_research\\video_compression\\compressed_videos\\UVG\\vp9\\2\\Beauty_1920x1080_120fps_420_8bit_YUV_vp9.webm",
  "codec": "vp9",
  "ok": "[yuv4mpegpipe @ 000001fb5f0b5280] Stream #0: not enough frames to estimate rate; consider increasing probesize\nInput #0, yuv4mpegpipe, from 'C:\\Users\\Peter\\Desktop\\stuff\\MIUN\\quantitative_research\\video_compression\\videos\\UVG\\Beauty_1920x1080_120fps_420_8bit_YUV.y4m':\n  Duration: 00:00:05.00, start: 0.000000, bitrate: 2985989 kb/s\n  Stream #0:0: Video: rawvideo (I420 / 0x30323449), yuv420p(progressive), 1920x1080, 120 fps, 120 tbr, 120 tbn\n[out#0/webm @ 000001fb5f0b9b00] Codec AVOption b:a (set bitrate (in bits/s)) has not been used for any stream. The most likely reason is either wrong type (e.g. a video option with no video streams) or that it is a private option of some decoder which was not actually used for any stream.\nStream mapping:\n  Stream #0:0 -> #0:0 (rawvideo (native) -> vp9 (libvpx-vp9))\nPress [q] to stop, [?] for help\n[libvpx-vp9 @ 000001fb5f0bc000] v1.15.2-100-g40561f514\nOutput #0, webm, to 'C:\\Users\\Peter\\Desktop\\stuff\\MIUN\\quantitative_research\\video_compression\\compressed_videos\\UVG\\vp9\\2\\Beauty_1920x1080_120fps_420_8bit_YUV_vp9.webm':\n  Metadata:\n    encoder         : Lavf62.3.100\n  Stream #0:0: Video: vp9, yuv420p(tv, progressive), 1920x1080, q=2-31, 2000 kb/s, 120 fps, 1k tbn\n    Metadata:\n      encoder         : Lavc62.11.100 libvpx-vp9\n    Side data:\n      cpb: bitrate max/min/avg: 0/0/0 buffer size: 2000000 vbv_delay: N/A\nframe=    8 fps=0.0 q=53.0 size=       0KiB time=00:00:00.06 bitrate=  57.7kbits/s speed=0.129x elapsed=0:00:00.51    \nframe=   17 fps= 16 q=53.0 size=       0KiB time=00:00:00.14 bitrate=  27.2kbits/s speed=0.137x elapsed=0:00:01.03    \nframe=   26 fps= 17 q=55.0 size=       0KiB time=00:00:00.21 bitrate=  17.8kbits/s speed=0.139x elapsed=0:00:01.55    \nframe=   34 fps= 17 q=54.0 size=       0KiB time=00:00:00.28 bitrate=  13.6kbits/s speed=0.138x elapsed=0:00:02.05    \nframe=   43 fps= 17 q=53.0 size=       0KiB time=00:00:00.35 bitrate=  10.7kbits/s speed=0.139x elapsed=0:00:02.58    \nframe=   51 fps= 16 q=55.0 size=       0KiB time=00:00:00.42 bitrate=   9.1kbits/s speed=0.137x elapsed=0:00:03.09    \nframe=   61 fps= 17 q=38.0 size=       0KiB time=00:00:00.50 bitrate=   7.6kbits/s speed=0.141x elapsed=0:00:03.61    \nframe=   72 fps= 17 q=50.0 size=       0KiB time=00:00:00.60 bitrate=   6.4kbits/s speed=0.145x elapsed=0:00:04.13    \nframe=   80 fps= 17 q=52.0 size=       0KiB time=00:00:00.66 bitrate=   5.8kbits/s speed=0.144x elapsed=0:00:04.64    \nframe=   90 fps= 17 q=53.0 size=       0KiB time=00:00:00.75 bitrate=   5.1kbits/s speed=0.145x elapsed=0:00:05.16    \nframe=  100 fps= 18 q=52.0 size=       0KiB time=00:00:00.83 bitrate=   4.6kbits/s speed=0.147x elapsed=0:00:05.66    \nframe=  110 fps= 18 q=55.0 size=       0KiB time=00:00:00.91 bitrate=   4.2kbits/s speed=0.148x elapsed=0:00:06.19    \nframe=  120 fps= 18 q=55.0 size=       0KiB time=00:00:01.00 bitrate=   3.8kbits/s speed=0.149x elapsed=0:00:06.70    \nframe=  129 fps= 18 q=35.0 size=       0KiB time=00:00:01.07 bitrate=   3.6kbits/s speed=0.149x elapsed=0:00:07.22    \nframe=  141 fps= 18 q=53.0 size=     224KiB time=00:00:01.17 bitrate=1560.4kbits/s speed=0.152x elapsed=0:00:07.73    \nframe=  151 fps= 18 q=49.0 size=     224KiB time=00:00:01.25 bitrate=1457.0kbits/s speed=0.152x elapsed=0:00:08.26    \nframe=  160 fps= 18 q=49.0 size=     224KiB time=00:00:01.33 bitrate=1375.1kbits/s speed=0.152x elapsed=0:00:08.76    \nframe=  170 fps= 18 q=53.0 size=     224KiB time=00:00:01.41 bitrate=1294.2kbits/s speed=0.153x elapsed=0:00:09.27    \nframe=  180 fps= 18 q=51.0 size=     224KiB time=00:00:01.50 bitrate=1222.3kbits/s speed=0.153x elapsed=0:00:09.80    \nframe=  188 fps= 18 q=51.0 size=     224KiB time=00:00:01.56 bitrate=1170.3kbits/s speed=0.152x elapsed=0:00:10.31    \nframe=  200 fps= 18 q=52.0 size=     224KiB time=00:00:01.66 bitrate=1100.1kbits/s speed=0.154x elapsed=0:00:10.82    \nframe=  209 fps= 18 q=55.0 size=     224KiB time=00:00:01.74 bitrate=1052.7kbits/s speed=0.154x elapsed=0:00:11.34    \nframe=  219 fps= 18 q=34.0 size=     224KiB time=00:00:01.82 bitrate=1004.6kbits/s speed=0.154x elapsed=0:00:11.86    \nframe=  231 fps= 19 q=55.0 size=     224KiB time=00:00:01.92 bitrate= 952.4kbits/s speed=0.156x elapsed=0:00:12.37    \nframe=  241 fps= 19 q=55.0 size=     224KiB time=00:00:02.00 bitrate= 912.9kbits/s speed=0.156x elapsed=0:00:12.89    \nframe=  252 fps= 19 q=52.0 size=     224KiB time=00:00:02.10 bitrate= 873.1kbits/s speed=0.157x elapsed=0:00:13.41    \nframe=  263 fps= 19 q=51.0 size=     256KiB time=00:00:02.19 bitrate= 956.9kbits/s speed=0.157x elapsed=0:00:13.92    \nframe=  273 fps= 19 q=55.0 size=     256KiB time=00:00:02.27 bitrate= 921.8kbits/s speed=0.158x elapsed=0:00:14.44    \nframe=  284 fps= 19 q=57.0 size=     256KiB time=00:00:02.36 bitrate= 886.1kbits/s speed=0.158x elapsed=0:00:14.95    \nframe=  294 fps= 19 q=55.0 size=     256KiB time=00:00:02.45 bitrate= 856.0kbits/s speed=0.158x elapsed=0:00:15.46    \nframe=  305 fps= 19 q=52.0 size=     256KiB time=00:00:02.54 bitrate= 825.1kbits/s speed=0.159x elapsed=0:00:15.99    \nframe=  316 fps= 19 q=53.0 size=     256KiB time=00:00:02.63 bitrate= 796.4kbits/s speed=0.16x elapsed=0:00:16.50    \nframe=  328 fps= 19 q=54.0 size=     256KiB time=00:00:02.73 bitrate= 767.3kbits/s speed=0.161x elapsed=0:00:17.01    \nframe=  338 fps= 19 q=53.0 size=     256KiB time=00:00:02.81 bitrate= 744.6kbits/s speed=0.161x elapsed=0:00:17.54    \nframe=  349 fps= 19 q=51.0 size=     256KiB time=00:00:02.90 bitrate= 721.1kbits/s speed=0.161x elapsed=0:00:18.05    \nframe=  361 fps= 19 q=54.0 size=     256KiB time=00:00:03.00 bitrate= 697.1kbits/s speed=0.162x elapsed=0:00:18.56    \nframe=  372 fps= 19 q=55.0 size=     256KiB time=00:00:03.10 bitrate= 676.5kbits/s speed=0.162x elapsed=0:00:19.08    \nframe=  383 fps= 20 q=55.0 size=     256KiB time=00:00:03.19 bitrate= 657.1kbits/s speed=0.163x elapsed=0:00:19.60    \nframe=  393 fps= 20 q=55.0 size=     512KiB time=00:00:03.27 bitrate=1280.7kbits/s speed=0.163x elapsed=0:00:20.12    \nframe=  405 fps= 20 q=53.0 size=     512KiB time=00:00:03.37 bitrate=1242.8kbits/s speed=0.163x elapsed=0:00:20.64    \nframe=  415 fps= 20 q=34.0 size=     512KiB time=00:00:03.45 bitrate=1212.8kbits/s speed=0.163x elapsed=0:00:21.15    \nframe=  426 fps= 20 q=53.0 size=     512KiB time=00:00:03.55 bitrate=1181.5kbits/s speed=0.164x elapsed=0:00:21.67    \nframe=  436 fps= 20 q=54.0 size=     512KiB time=00:00:03.63 bitrate=1154.4kbits/s speed=0.164x elapsed=0:00:22.19    \nframe=  446 fps= 20 q=55.0 size=     512KiB time=00:00:03.71 bitrate=1128.5kbits/s speed=0.164x elapsed=0:00:22.70    \nframe=  457 fps= 20 q=52.0 size=     512KiB time=00:00:03.80 bitrate=1101.3kbits/s speed=0.164x elapsed=0:00:23.21    \nframe=  468 fps= 20 q=52.0 size=     512KiB time=00:00:03.90 bitrate=1075.5kbits/s speed=0.164x elapsed=0:00:23.73    \nframe=  478 fps= 20 q=52.0 size=     512KiB time=00:00:03.98 bitrate=1053.0kbits/s speed=0.164x elapsed=0:00:24.25    \nframe=  489 fps= 20 q=54.0 size=     512KiB time=00:00:04.07 bitrate=1029.3kbits/s speed=0.165x elapsed=0:00:24.76    \nframe=  499 fps= 20 q=55.0 size=     512KiB time=00:00:04.15 bitrate=1008.7kbits/s speed=0.164x elapsed=0:00:25.28    \nframe=  509 fps= 20 q=53.0 size=     512KiB time=00:00:04.24 bitrate= 988.8kbits/s speed=0.164x elapsed=0:00:25.79    \nframe=  519 fps= 20 q=51.0 size=     768KiB time=00:00:04.32 bitrate=1454.7kbits/s speed=0.164x elapsed=0:00:26.31    \nframe=  530 fps= 20 q=50.0 size=     768KiB time=00:00:04.41 bitrate=1424.5kbits/s speed=0.165x elapsed=0:00:26.83    \nframe=  540 fps= 20 q=51.0 size=     768KiB time=00:00:04.50 bitrate=1398.1kbits/s speed=0.165x elapsed=0:00:27.34    \nframe=  550 fps= 20 q=50.0 size=     768KiB time=00:00:04.58 bitrate=1372.7kbits/s speed=0.165x elapsed=0:00:27.85    \nframe=  560 fps= 20 q=51.0 size=     768KiB time=00:00:04.66 bitrate=1348.2kbits/s speed=0.164x elapsed=0:00:28.38    \nframe=  572 fps= 20 q=52.0 size=     768KiB time=00:00:04.76 bitrate=1319.9kbits/s speed=0.165x elapsed=0:00:28.89    \nframe=  576 fps= 20 q=53.0 size=     768KiB time=00:00:04.80 bitrate=1310.7kbits/s speed=0.163x elapsed=0:00:29.41    \nframe=  576 fps= 19 q=53.0 size=     768KiB time=00:00:04.80 bitrate=1310.7kbits/s speed=0.16x elapsed=0:00:29.92    \n[out#0/webm @ 000001fb5f0b9b00] video:1185KiB audio:0KiB subtitle:0KiB other streams:0KiB global headers:0KiB muxing overhead: 0.398433%\nframe=  600 fps= 20 q=52.0 Lsize=    1190KiB time=00:00:05.00 bitrate=1949.7kbits/s speed=0.165x elapsed=0:00:30.22    \n",
  "seconds": 30.305945873260498,
  "probe_out": {}
}